<?xml version="1.0" encoding="utf-8"?>
<!-- Generator: Adobe Illustrator 24.2.1, SVG Export Plug-In . SVG Version: 6.00 Build 0)  -->
<svg version="1.1" id="Capa_1" xmlns="http://www.w3.org/2000/svg" xmlns:xlink="http://www.w3.org/1999/xlink" x="0px" y="0px"
	 viewBox="0 0 477.8 477.8" style="enable-background:new 0 0 477.8 477.8;" xml:space="preserve">
<style type="text/css">
	.st0{fill:#28ADFB;}
</style>
<g>
	<path class="st0" d="M460.8,443.7c0,18.7-15.5,34.1-34.1,34.1H51.2c-18.7,0-34.1-15.5-34.1-34.1V102.4c0-18.7,15.5-34.1,34.1-34.1
		h34.1V42.7C85.3,19.2,104.5,0,128,0h17.1c23.5,0,42.7,19.2,42.7,42.7v25.6h102.4V42.7c0-23.5,19.2-42.7,42.7-42.7h17.1
		c23.5,0,42.7,19.2,42.7,42.7v25.6h34.1c18.7,0,34.1,15.5,34.1,34.1V443.7z M128,247.5v-76.8H51.2v76.8H128z M128,349.9v-85.3H51.2
		v85.3H128z M128,443.7v-76.8H51.2v76.8H128z M153.6,42.7c0-4.5-4-8.5-8.5-8.5H128c-4.5,0-8.5,4-8.5,8.5v76.8c0,4.5,4,8.5,8.5,8.5
		h17.1c4.5,0,8.5-4,8.5-8.5V42.7z M230.4,247.5v-76.8h-85.3v76.8H230.4z M230.4,349.9v-85.3h-85.3v85.3H230.4z M230.4,443.7v-76.8
		h-85.3v76.8H230.4z M332.8,247.5v-76.8h-85.3v76.8H332.8z M332.8,349.9v-85.3h-85.3v85.3H332.8z M332.8,443.7v-76.8h-85.3v76.8
		H332.8z M358.4,42.7c0-4.5-4-8.5-8.5-8.5h-17.1c-4.5,0-8.5,4-8.5,8.5v76.8c0,4.5,4,8.5,8.5,8.5h17.1c4.5,0,8.5-4,8.5-8.5V42.7z
		 M426.7,247.5v-76.8h-76.8v76.8H426.7z M426.7,349.9v-85.3h-76.8v85.3H426.7z M426.7,443.7v-76.8h-76.8v76.8H426.7z"/>
</g>
</svg>
