<?xml version="1.0" encoding="utf-8"?>
<!-- Generator: Adobe Illustrator 24.2.1, SVG Export Plug-In . SVG Version: 6.00 Build 0)  -->
<svg version="1.1" id="Capa_1" xmlns="http://www.w3.org/2000/svg" xmlns:xlink="http://www.w3.org/1999/xlink" x="0px" y="0px"
	 viewBox="0 0 477.8 477.8" style="enable-background:new 0 0 477.8 477.8;" xml:space="preserve">
<style type="text/css">
	.st0{fill:#28ADFB;}
</style>
<path class="st0" d="M470.9,334.9h-32v-216c0-13.2-10.8-24-24-24h-40v-8c0-4.4-3.6-8-8-8h-104c-1.6,0-3.1,0.5-4.4,1.3l-19.6,13
	l-19.6-13c-1.3-0.9-2.9-1.3-4.4-1.3h-104c-4.4,0-8,3.6-8,8v8h-40c-13.2,0-24,10.8-24,24v216h-32c-4.4,0-8,3.6-8,8v16
	c0,22.1,17.9,40,40,40h400c22.1,0,40-17.9,40-40v-16C478.9,338.5,475.3,334.9,470.9,334.9z M414.9,110.9c4.4,0,8,3.6,8,8v216h-16
	v-200c0-4.4-3.6-8-8-8h-24v-16H414.9z M265.3,94.9h93.6v192h-96c-1.6,0-3.1,0.5-4.4,1.3l-11.6,7.7V107.2L265.3,94.9z M118.9,94.9
	h93.6l18.4,12.3V296l-11.6-7.7c-1.3-0.9-2.9-1.3-4.4-1.3h-96V94.9z M212.5,302.9l22,14.7c2.7,1.8,6.2,1.8,8.9,0l22-14.7h101.6
	c4.4,0,8-3.6,8-8v-152h16v192h-304v-192h16v152c0,4.4,3.6,8,8,8H212.5z M54.9,118.9c0-4.4,3.6-8,8-8h40v16h-24c-4.4,0-8,3.6-8,8v200
	h-16V118.9z M462.9,358.9c0,13.2-10.8,24-24,24h-400c-13.2,0-24-10.8-24-24v-8h448V358.9z"/>
<path class="st0" d="M286.9,126.9h48c4.4,0,8-3.6,8-8s-3.6-8-8-8h-48c-4.4,0-8,3.6-8,8S282.5,126.9,286.9,126.9z"/>
<path class="st0" d="M142.9,238.9h64c4.4,0,8-3.6,8-8s-3.6-8-8-8h-64c-4.4,0-8,3.6-8,8S138.5,238.9,142.9,238.9z"/>
<path class="st0" d="M206.9,254.9h-64c-4.4,0-8,3.6-8,8s3.6,8,8,8h64c4.4,0,8-3.6,8-8S211.3,254.9,206.9,254.9z"/>
<path class="st0" d="M206.9,190.9h-48c-4.4,0-8,3.6-8,8s3.6,8,8,8h48c4.4,0,8-3.6,8-8S211.3,190.9,206.9,190.9z"/>
<path class="st0" d="M270.9,158.9h16c4.4,0,8-3.6,8-8s-3.6-8-8-8h-16c-4.4,0-8,3.6-8,8S266.5,158.9,270.9,158.9z"/>
<path class="st0" d="M334.9,142.9h-16c-4.4,0-8,3.6-8,8s3.6,8,8,8h16c4.4,0,8-3.6,8-8S339.3,142.9,334.9,142.9z"/>
<path class="st0" d="M270.9,270.9h64c4.4,0,8-3.6,8-8s-3.6-8-8-8h-64c-4.4,0-8,3.6-8,8S266.5,270.9,270.9,270.9z"/>
<path class="st0" d="M142.9,174.9h64c4.4,0,8-3.6,8-8v-48c0-4.4-3.6-8-8-8h-64c-4.4,0-8,3.6-8,8v48
	C134.9,171.3,138.5,174.9,142.9,174.9z M150.9,126.9h48v32h-48V126.9z"/>
<path class="st0" d="M270.9,238.9h64c4.4,0,8-3.6,8-8v-48c0-4.4-3.6-8-8-8h-64c-4.4,0-8,3.6-8,8v48
	C262.9,235.3,266.5,238.9,270.9,238.9z M278.9,190.9h48v32h-48V190.9z"/>
</svg>
