<?xml version="1.0" encoding="utf-8"?>
<!-- Generator: Adobe Illustrator 24.2.1, SVG Export Plug-In . SVG Version: 6.00 Build 0)  -->
<svg version="1.1" id="Capa_1" xmlns="http://www.w3.org/2000/svg" xmlns:xlink="http://www.w3.org/1999/xlink" x="0px" y="0px"
	 viewBox="0 0 477.8 477.8" style="enable-background:new 0 0 477.8 477.8;" xml:space="preserve">
<style type="text/css">
	.st0{fill:#28ADFB;}
</style>
<g>
	<path class="st0" d="M185.3,433.7H87.9c-48.4,0-87.7-39.3-87.7-87.7V131.8c0-48.4,39.3-87.7,87.7-87.7h97.4c5.2,0,9.7,4.6,9.7,9.7
		c0,8.5,4,29.2-9.7,29.2H87.9c-26.8,0-48.7,21.9-48.7,48.7v214.3c0,26.8,21.9,48.7,48.7,48.7h87.7c7.6,0,19.5-1.5,19.5,9.7
		C195.1,413,199,433.7,185.3,433.7z M471.8,252.6L306.2,418.2c-3.7,3.7-8.5,5.8-13.7,5.8c-10.7,0-19.5-8.8-19.5-19.5v-87.7H136.6
		c-10.7,0-19.5-8.8-19.5-19.5V180.5c0-10.7,8.8-19.5,19.5-19.5H273V73.3c0-10.7,8.8-19.5,19.5-19.5c5.2,0,10,2.1,13.7,5.8
		l165.6,165.6c3.7,3.7,5.8,8.5,5.8,13.7C477.6,244.1,475.4,249,471.8,252.6z"/>
</g>
</svg>
