<?xml version="1.0" encoding="utf-8"?>
<!-- Generator: Adobe Illustrator 24.2.1, SVG Export Plug-In . SVG Version: 6.00 Build 0)  -->
<svg version="1.1"
	 id="svg8" inkscape:version="0.92.3 (2405546, 2018-03-11)" sodipodi:docname="PDF file icon.svg" xmlns:cc="http://creativecommons.org/ns#" xmlns:dc="http://purl.org/dc/elements/1.1/" xmlns:inkscape="http://www.inkscape.org/namespaces/inkscape" xmlns:rdf="http://www.w3.org/1999/02/22-rdf-syntax-ns#" xmlns:sodipodi="http://sodipodi.sourceforge.net/DTD/sodipodi-0.dtd" xmlns:svg="http://www.w3.org/2000/svg"
	 xmlns="http://www.w3.org/2000/svg" xmlns:xlink="http://www.w3.org/1999/xlink" x="0px" y="0px" viewBox="0 0 213.5 213.5"
	 style="enable-background:new 0 0 213.5 213.5;" xml:space="preserve">
<style type="text/css">
	.st0{fill:#FF2116;}
	.st1{fill:#FFFFFF;}
</style>
<rect class="st0" width="213.5" height="213.5"/>
<sodipodi:namedview  bordercolor="#666666" borderopacity="1.0" fit-margin-bottom="0" fit-margin-left="0" fit-margin-right="0" fit-margin-top="0" id="base" inkscape:current-layer="g899" inkscape:cx="122.12727" inkscape:cy="167.02823" inkscape:document-units="mm" inkscape:object-nodes="false" inkscape:pageopacity="0.0" inkscape:pageshadow="2" inkscape:snap-others="false" inkscape:snap-page="false" inkscape:window-height="705" inkscape:window-maximized="1" inkscape:window-width="1366" inkscape:window-x="-8" inkscape:window-y="-8" inkscape:zoom="0.98994949" pagecolor="#ffffff" showgrid="false">
	</sodipodi:namedview>
<path id="path2697" inkscape:connector-curvature="0" sodipodi:nodetypes="scccscccscccccssscacccsccccccccccccccccccccaccccccccc" class="st1" d="
	M39.7,143.9c-7.3-7.3,0.6-17.4,22.1-28.1l13.5-6.7l5.3-11.5c2.9-6.3,7.2-16.7,9.6-23l4.3-11.5l-3-8.5c-3.7-10.4-5-26.1-2.7-31.7
	c3.2-7.6,13.5-6.8,17.6,1.3c3.2,6.4,2.9,18-0.9,32.5l-3.1,12l2.7,4.7c1.5,2.6,5.9,8.6,9.8,13.5l7.3,9.1l9.1-1.2
	c28.8-3.8,38.6,2.6,38.6,11.8c0,11.6-22.6,12.5-41.6-0.8c-4.3-3-7.2-6-7.2-6s-11.9,2.4-17.7,4c-6,1.6-9.1,2.6-17.9,5.6
	c0,0-3.1,4.5-5.1,7.8c-7.5,12.2-16.3,22.3-22.6,26C50.8,147.3,43.4,147.6,39.7,143.9z M51.2,139.8c4.1-2.5,12.4-12.4,18.2-21.5
	l2.3-3.7l-10.6,5.3c-16.4,8.3-23.9,16-20,20.7C43.3,143.3,45.9,143.1,51.2,139.8L51.2,139.8z M157.8,109.9c4-2.8,3.4-8.5-1.1-10.8
	c-3.5-1.8-6.4-2.1-15.6-2c-5.7,0.4-14.7,1.5-16.3,1.9c0,0,5,3.5,7.2,4.7c3,1.7,10.1,4.8,15.4,6.4
	C152.5,111.7,155.5,111.5,157.8,109.9L157.8,109.9z M114.9,92.1c-2.4-2.6-6.6-7.9-9.2-11.9c-3.4-4.5-5.2-7.7-5.2-7.7
	S98,80.6,96,85.5l-6.4,15.9l-1.9,3.6c0,0,9.9-3.2,14.9-4.6c5.3-1.4,16.2-3.5,16.2-3.5L114.9,92.1z M101.1,36.7
	c0.6-5.2,0.9-10.4-0.8-13C95.7,18.6,90,22.8,91,34.9c0.3,4.1,1.3,11,2.7,15.3l2.5,7.8l1.7-5.9C98.8,48.9,100.3,41.9,101.1,36.7
	L101.1,36.7z"/>
<g id="g858">
	<path id="path845" inkscape:connector-curvature="0" class="st1" d="M139.9,169.7h6.9c2.2,0,4,0.2,5.4,0.6c1.4,0.4,2.5,1.3,3.5,2.8
		c0.9,1.4,1.4,3.1,1.4,5.2c0,1.8-0.4,3.4-1.1,4.8c-0.8,1.3-1.8,2.3-3.1,2.9c-1.3,0.6-3.3,0.9-6,0.9h-2.4v10.9h-4.6L139.9,169.7z
		 M144.6,173.3v9.8h2.3c2.1,0,3.5-0.4,4.3-1.1c0.8-0.8,1.2-2,1.2-3.7c0-1.3-0.3-2.3-0.8-3.1c-0.5-0.8-1.1-1.3-1.7-1.5
		c-0.6-0.2-1.6-0.3-2.9-0.3L144.6,173.3z"/>
	<path id="path847" inkscape:connector-curvature="0" class="st1" d="M160.7,169.7h6.3c3.1,0,5.5,0.5,7.3,1.6
		c1.8,1.1,3.2,2.7,4.1,4.8c0.9,2.1,1.4,4.5,1.4,7.1c0,2.7-0.4,5.2-1.3,7.3c-0.8,2.1-2.1,3.9-3.9,5.2c-1.7,1.3-4.2,2-7.4,2h-6.7
		V169.7z M165.4,173.4V194h1.9c2.7,0,4.7-0.9,5.9-2.8c1.2-1.9,1.8-4.4,1.8-7.5c0-6.9-2.6-10.3-7.7-10.3L165.4,173.4z"/>
	<path id="path849" inkscape:connector-curvature="0" class="st1" d="M184.4,169.7h15.6v3.7H189v8.4h8.7v3.7H189v12.2h-4.6V169.7z"
		/>
</g>
</svg>
