<?xml version="1.0" encoding="utf-8"?>
<!-- Generator: Adobe Illustrator 24.2.1, SVG Export Plug-In . SVG Version: 6.00 Build 0)  -->
<svg version="1.1" id="Capa_1" xmlns="http://www.w3.org/2000/svg" xmlns:xlink="http://www.w3.org/1999/xlink" x="0px" y="0px"
	 viewBox="0 0 141.7 141.7" style="enable-background:new 0 0 141.7 141.7;" xml:space="preserve">
<style type="text/css">
	.st0{fill:#28ADFB;}
</style>
<g>
	<path class="st0" d="M18.3,0v141.7h78.4l26.7-29.9V0H18.3z M114.4,101.7l-25.6,0l0.1,31.1H26.7V8.4h87.7V101.7z"/>
	<path class="st0" d="M44.2,81.5l9.9,9.9c0,0,15.6-16.8,16.8-16.8c1.2,0,16.8,16.8,16.8,16.8l9.9-9.9c0,0-16.8-15.7-16.8-16.8
		c0-1.2,16.8-16.8,16.8-16.8L87.6,38c0,0-15.8,16.8-16.8,16.8c-1,0-16.8-16.8-16.8-16.8l-9.9,9.9c0,0,16.8,15.4,16.8,16.8
		C61,66.1,44.2,81.5,44.2,81.5z"/>
</g>
</svg>
