<?xml version="1.0" encoding="utf-8"?>
<!-- Generator: Adobe Illustrator 24.2.1, SVG Export Plug-In . SVG Version: 6.00 Build 0)  -->
<svg version="1.1" id="Capa_1" xmlns="http://www.w3.org/2000/svg" xmlns:xlink="http://www.w3.org/1999/xlink" x="0px" y="0px"
	 viewBox="0 0 141.7 141.7" style="enable-background:new 0 0 141.7 141.7;" xml:space="preserve">
<style type="text/css">
	.st0{fill:#28ADFB;}
</style>
<g>
	<path class="st0" d="M18.3,0v141.7h78.4l26.7-29.9V0H18.3z M26.7,132.8V8.4h87.7v93.3l-25.6,0l0.1,31.1H26.7z"/>
	<g>
		<polygon class="st0" points="65.8,83.2 68,85.4 98.7,54.7 96.5,52.5 		"/>
		
			<rect x="53.8" y="58.3" transform="matrix(0.7071 -0.7071 0.7071 0.7071 -21.8747 71.6555)" class="st0" width="43.5" height="7.9"/>
		
			<rect x="46.8" y="53.3" transform="matrix(0.7071 -0.7071 0.7071 0.7071 -18.9861 64.6832)" class="st0" width="43.5" height="3.9"/>
		<polygon class="st0" points="65.9,87.5 49.7,71.4 42.8,87.1 50.1,94.4 		"/>
		<polygon class="st0" points="37.2,100.1 48.1,95.3 41.9,89.2 		"/>
		<rect x="91.1" y="30.3" transform="matrix(0.707 -0.7072 0.7072 0.707 -1.5406 79.7679)" class="st0" width="8.7" height="22.8"/>
	</g>
</g>
</svg>
