<?xml version="1.0" encoding="utf-8"?>
<!-- Generator: Adobe Illustrator 24.2.1, SVG Export Plug-In . SVG Version: 6.00 Build 0)  -->
<svg version="1.1" id="Capa_1" xmlns="http://www.w3.org/2000/svg" xmlns:xlink="http://www.w3.org/1999/xlink" x="0px" y="0px"
	 viewBox="0 0 477.8 477.8" style="enable-background:new 0 0 477.8 477.8;" xml:space="preserve">
<style type="text/css">
	.st0{fill:#28ADFB;}
</style>
<g>
	<path class="st0" d="M440.6,477.6c-9.7,0-19.2-4-25.7-10.9l-98.1-97.8c-33.5,23.2-73.5,35.5-114.1,35.5
		C91.5,404.4,1.5,314.3,1.5,203.1S91.5,1.8,202.7,1.8S404,91.9,404,203.1c0,40.6-12.3,80.6-35.5,114.1l98.1,98.1
		c6.6,6.6,10.6,16,10.6,25.7C477.2,461.3,460.9,477.6,440.6,477.6z M202.7,75c-70.6,0-128.1,57.5-128.1,128.1
		s57.5,128.1,128.1,128.1s128.1-57.5,128.1-128.1S273.4,75,202.7,75z M294.2,212.2c0,4.9-4.3,9.1-9.1,9.1h-64v64
		c0,4.9-4.3,9.1-9.1,9.1h-18.3c-4.9,0-9.1-4.3-9.1-9.1v-64h-64c-4.9,0-9.1-4.3-9.1-9.1v-18.3c0-4.9,4.3-9.1,9.1-9.1h64v-64
		c0-4.9,4.3-9.1,9.1-9.1h18.3c4.9,0,9.1,4.3,9.1,9.1v64h64c4.9,0,9.1,4.3,9.1,9.1V212.2z"/>
</g>
</svg>
