<?xml version="1.0" encoding="utf-8"?>
<!-- Generator: Adobe Illustrator 24.2.1, SVG Export Plug-In . SVG Version: 6.00 Build 0)  -->
<svg version="1.1" id="Capa_1" xmlns="http://www.w3.org/2000/svg" xmlns:xlink="http://www.w3.org/1999/xlink" x="0px" y="0px"
	 viewBox="0 0 477.8 477.8" style="enable-background:new 0 0 477.8 477.8;" xml:space="preserve">
<style type="text/css">
	.st0{fill:#28ADFB;}
</style>
<g>
	<g>
		<path class="st0" d="M374.1,385.5c71.7-74.7,69.2-193.4-5.5-265.1c-35-33.6-81.6-52.3-130.1-52.2C135,68.1,51,151.9,50.8,255.5
			c-0.1,48.5,18.6,95.1,52.2,130.1l-48.8,65c-5.7,7.5-4.1,18.2,3.4,23.9s18.2,4.1,23.9-3.4l47.3-63c65.4,47.7,154.1,47.7,219.5,0
			l47.3,63c5.7,7.5,16.4,9.1,23.9,3.4c7.5-5.7,9.1-16.4,3.4-23.9L374.1,385.5z M238.6,409.6C153.8,409.5,85.1,340.8,85,256
			c0-84.8,68.8-153.6,153.6-153.6S392.2,171.2,392.2,256S323.4,409.6,238.6,409.6z"/>
	</g>
</g>
<g>
	<g>
		<path class="st0" d="M145.3,25C111.5-7.9,57.5-7.2,24.6,26.5c-32.3,33.1-32.3,86,0,119.1c6.7,6.7,17.5,6.7,24.1,0l96.5-96.5
			C151.9,42.5,151.9,31.6,145.3,25z M38.7,107.4c-12.2-25.5-1.4-56.1,24.1-68.3c14-6.7,30.2-6.7,44.1,0L38.7,107.4z"/>
	</g>
</g>
<g>
	<g>
		<path class="st0" d="M452.5,25c-33.3-33.3-87.3-33.3-120.7,0c-6.7,6.7-6.7,17.5,0,24.1l96.5,96.5c6.7,6.7,17.5,6.7,24.1,0
			C485.8,112.3,485.8,58.3,452.5,25z M438.4,107.4L438.4,107.4l-68.3-68.3c19.6-9,42.8-5,58.3,10C443.7,64.5,447.8,87.8,438.4,107.4
			z"/>
	</g>
</g>
<g>
	<g>
		<path class="st0" d="M238.6,136.5c-9.4,0-17.1,7.6-17.1,17.1v96.7L173.7,314c-5.7,7.5-4.1,18.2,3.4,23.9s18.2,4.1,23.9-3.4
			l51.2-68.3c2.2-3,3.4-6.5,3.4-10.2V153.6C255.6,144.2,248,136.5,238.6,136.5z"/>
	</g>
</g>
</svg>
