<?xml version="1.0" encoding="utf-8"?>
<!-- Generator: Adobe Illustrator 21.0.2, SVG Export Plug-In . SVG Version: 6.00 Build 0)  -->
<svg version="1.1" id="Layer_1" xmlns="http://www.w3.org/2000/svg" xmlns:xlink="http://www.w3.org/1999/xlink" x="0px" y="0px"
	 viewBox="0 0 87 39.3" style="enable-background:new 0 0 87 39.3;" xml:space="preserve">
<style type="text/css">
	.st0{fill:#646569;}
	.st1{fill:#FFFFFF;}
	.st2{fill:#EAB818;}
</style>
<g>
	<path class="st0" d="M15,20.1V6.5c0,0-2.1,0-3.2,0.4c-1.1,0.4-1,1.6-1,1.6v5.3C10,13.5,9,13.3,8,13.3c-2,0-3.9,0.7-5.2,2
		c-1.2,1.3-1.9,3.1-1.9,5.1c0,1.9,0.7,3.9,2,5.2C4.2,26.8,6,27.4,8,27.4c1.9,0,3.8-0.6,5.1-1.9c1.3-1.3,2-3.2,2-5.2
		C15,20.3,15,20.2,15,20.1z"/>
	<path class="st0" d="M81.4,17.3c-0.1-0.6-0.4-1.1-0.7-1.5c-0.3-0.4-0.6-0.7-1.4-0.8c-0.7-0.1-1.2,0.4-1.5,0.7
		c-0.3,0.4-0.6,0.9-0.8,1.5c-0.2,0.6-0.3,1.4-0.3,2.4l0,7.5c0,0-4.5-0.3-4.5-1.8c0-0.6,0-4.8,0-4.8c0-2.3,0.6-4.1,1.8-5.5
		c1.2-1.3,2.9-2,5.2-2c1.2,0,2.3,0.2,3.2,0.5c0.9,0.4,1.6,0.8,2.1,1.5c0.5,0.6,0.9,1.4,1.2,2.3c0.2,0.9,0.4,2,0.4,3.1
		c0,0,0,3.3,0,4.9c0,1.6-4.5,1.7-4.5,1.7v-7.5C81.6,18.7,81.6,17.9,81.4,17.3z"/>
	<path class="st0" d="M42.8,10.6c-0.1,0.1-0.1,0.1-0.2,0.2c-2.5,2.4-6.2,6.7-8.6,9.1c-1.8,1.8-2.7,2.7-4.3,3.6
		c-1.5,0.8-3.2,1.4-5,1.1c-1.7-0.2-2.9-1.2-3.4-2.1c4.5,0,8.2-2.7,8.1-6.3c-0.1-1.3-1.2-3.8-5.3-3.6c-2.2,0.1-4.1,1.1-5.3,2.4
		c-0.6,0.6-1.1,1.4-1.4,2.2c-0.3,0.8-0.4,1.7-0.4,2.7c0.1,5.1,4,7.4,8.2,7.4c4,0,6.6-1.9,8.8-3.3c3.6-2.4,6.2-5.5,7.6-7
		c3.2-3.5,4.6-4.7,6.9-6c0.4-0.2,0.7-0.4,1.1-0.5C48.8,8.9,44.4,9.2,42.8,10.6z M20.8,19.9c-0.3-3.1,1.8-4.6,3.1-4.6
		c1.7-0.1,2.4,0.6,2.4,1.7C26.2,18.8,23.3,20.2,20.8,19.9z"/>
	<ellipse class="st1" cx="62.1" cy="20" rx="2.9" ry="4.8"/>
	<path class="st0" d="M52.8,25.1c0,2.5-4.1,2.3-4.1,2.3s-0.3-10.4,0.4-12c1.2-3,3.9-2.7,3.9-1.8C52.6,15.6,52.8,21.6,52.8,25.1z"/>
	<path class="st2" d="M52.6,8.4c-0.6-1.2-1.4-1.8-2.7-1.8c-2,0-4.6,1.6-6,3.1c2.9-1.5,5.3-0.7,6.1,0.8C50.6,11.8,53.2,9.8,52.6,8.4z
		"/>
	<path class="st0" d="M47.4,24.9c-2.3-0.4-4.7-1.8-6.6-4.3c-1.2-1.6-2.6-4.8-4.1-6.6c-1.7-2.1-3.2-3.2-5.6-3.1
		c-1.7,0.1-3.4,0.9-1.7,1.5c1.5,0.6,2.2,1.4,3.8,3.5c1.6,2.1,2.7,4.4,3.8,6.1c3.1,4.6,7.1,5.2,10.2,5.3V24.9z"/>
	<ellipse class="st1" cx="8" cy="20.3" rx="2.9" ry="4.8"/>
	<path class="st0" d="M69.2,20.3c0,0,0,1.5-0.2,3.7c-0.3,4.9-4.5,7.8-7.3,7.5c-1.1-0.2-1.9-1.3-2.2-1.8c3.8,0.1,5.1-2.9,5.1-2.9
		c-0.7,0.3-1.4,0.3-2.4,0.3c-2,0-3.9-0.7-5.2-2c-1.2-1.3-1.9-3.1-1.9-5.1c0-1.9,0.7-3.9,2-5.2c1.3-1.3,3.1-1.8,5.1-1.8
		c1.9,0,3.8,0.6,5.1,1.9c1.3,1.3,2,3.2,2,5.2C69.2,20.2,69.2,20.2,69.2,20.3z"/>
	<ellipse class="st1" cx="62.2" cy="20.1" rx="2.9" ry="4.8"/>
</g>
</svg>
