<?xml version="1.0" encoding="utf-8"?>
<!-- Generator: Adobe Illustrator 24.2.1, SVG Export Plug-In . SVG Version: 6.00 Build 0)  -->
<svg version="1.1" id="Layer_1" xmlns="http://www.w3.org/2000/svg" xmlns:xlink="http://www.w3.org/1999/xlink" x="0px" y="0px"
	 viewBox="0 0 113.4 113.4" style="enable-background:new 0 0 113.4 113.4;" xml:space="preserve">
<style type="text/css">
	.st0{fill:#B1B1B0;}
	.st1{fill:#FFFFFF;}
</style>
<rect y="0" class="st0" width="113.4" height="113.4"/>
<g>
	<path class="st1" d="M80.2,96.8h-47c-6.4,0-11.7-6.5-11.7-14.6c0-14.5,3.6-31.2,18-31.2c4.5,4.3,10.5,7,17.2,7
		c6.7,0,12.8-2.7,17.2-7c14.4,0,18,16.7,18,31.2C91.9,90.3,86.6,96.8,80.2,96.8z M56.7,54.6c-11.7,0-21.1-9.5-21.1-21.1
		S45,12.4,56.7,12.4c11.7,0,21.1,9.5,21.1,21.1S68.4,54.6,56.7,54.6z"/>
</g>
</svg>
